<?xml version="1.0" encoding="utf-8"?>
<!-- Generator: Adobe Illustrator 19.2.0, SVG Export Plug-In . SVG Version: 6.00 Build 0)  -->
<svg version="1.1" id="Layer_1" xmlns="http://www.w3.org/2000/svg" xmlns:xlink="http://www.w3.org/1999/xlink" x="0px" y="0px"
	 viewBox="0 0 452.8 49.3" style="enable-background:new 0 0 452.8 49.3;" xml:space="preserve">
<style type="text/css">
	.st0{fill:#FFFFFF;}
</style>
<g>
	<path d="M-353.2,20.7c0.7-1.5,1.6-2.9,2.5-4.5c0.5,0.8,0.4,1.4,0.4,2.1c-0.3,5.9-0.7,11.1-0.9,15.8c-0.1,1.8,1.4,2.5,3.8,2.4
		c2,0.1,2.6-1.5,2.7-3.1c0.3-3.8,0.7-7.9,0.9-12.5c0.1-2.2,0-4.6-0.6-6.8c-0.8-3.3-3.2-3.9-6-1.5c-1.5,1.3-2.8,3-3.8,4.7
		c-1.4,2.4-3.3,5.1-4.9,7.6c-0.5,0.9-1.9,0.5-2-0.5c-0.1-1-0.1-1.9,0-3c0.1-2.6,0-3.9,0-8.1c-0.1-2.2-0.2-3.6-1.3-5.1
		c-0.2-0.3-0.5-0.4-0.8-0.4c-1.2,0.1-2.7,1.4-3.8,2.3c-0.8,0.7-1.3,2-1.7,3.1c-1.9,5-3.6,9.7-5.1,13.8c0-0.3,0-0.6,0.1-1
		c0.7-5.8,1.5-12.4,2.3-19.9c0.3-2.5,0-5.1-2.6-6c-2.6-0.9-3.2,1.7-3.6,3.9c-1.6,8.7-3.1,16.2-4,22.9c-0.5,3.4-0.3,6.7-0.2,9.7
		c0,1.6,1.6,3.1,3.6,3.1c1.5,0.1,3.8-0.4,4.2-1.2c1.5-3.5,2.3-7.7,3.6-12c0.5-1.7,1.1-3.5,1.8-5.4c0.4-1.2,2.1-0.8,2.1,0.4
		c-0.2,4.3-0.4,8.1-0.6,11.5c-0.1,1.8,0.7,3.2,2.6,3.8c1.4,0.4,4-1,4.7-2.5"/>
	<path d="M-303.7,27.4c-4.1,9.9-8.9,7-13.7-5.1c-1.1-2.9-1.8-6.7-6.6-4.9c-0.3,0.1-0.8-0.4-1.2-0.7c-4.4-2.9-6.4-2.4-10,1.8
		c-2.6,3.1-6.1,7.8-10.2,12.3c-0.8,0.9-0.9,4.7,0.1,4.3l6.4-6.6c0.1,2.9-0.2,3.3,0.5,5.4c0.6,2,2.1,4.5,3.7,5
		c2.7,0.7,5.3,0.3,6.5-1.3c2.1-2.7,2.7-6,3.9-10.6c-0.3,1.1,0.9,2.7,2,3.9c5.6,5.9,9.4,7.1,14.5,4.7c2.2-1,3.8-2.3,5.6-4.1
		C-302.4,31-302.8,28.1-303.7,27.4 M-331.8,34.5c-0.5,0.5-1.3,0.2-1.5-0.4c-1.7-5.4,0.7-10,3.9-15c0.2-0.3,0.5-0.3,0.8-0.1
		C-325.7,22.1-328.4,31.2-331.8,34.5z"/>
	<path d="M-282.6,25c0.3-0.7,0.5-1.8,1-2.7c0.2-0.4,0.9-0.3,1.1,0.1c0.4,1.1,0.8,2.5,0.9,2.8c0.9,3.9,1.2,5.2,2.1,8.9
		c0.4,1.5,0.8,2.3,3.6,2c0.9,0,2.2,0.1,2.3-1.5c-0.8-3-1.6-5.6-2.6-8.8c-0.5-1.5-1.3-4.2-2.4-5.7c-2-3-3.6-2.3-4.5-2
		c-0.2,0.1-0.7,0.4-0.9,0.5c-1.1,0.7-1.6,1.8-2.2,2.8c-1.2,2.1-2.2,4.2-3.4,6.5c0,0.1-0.2,0-0.2,0c-0.3-1.7-0.4-3.1-0.7-4.6
		c-0.4-1.8-0.6-3.7-1.5-5.5c-0.6-1.1-2.4-2.6-3.7-2.9c-1.2-0.3-3,0-3.8,1.1c-0.5,0.7-0.8,1.2-1.2,1.9l0,0c-1.3,3.2-2.4,6.3-3.5,9.3
		c0-0.2,0-0.5,0-0.7c0.1-4.1-0.1-4.4,0-8.8c0-1.4-0.8-3.3-3.1-3.9c-2.3-0.6-3.3,0.7-3.4,2.8c0,0,0,0,0,0c0.2,5,0.6,5.2,0.7,10.8
		c0.2,3.5,0.1,4.2,0.4,6.6c0.1,1.4-0.1,3,2.2,3.2c1.6,0.1,4.2,0,4.5-0.7c1.1-2.8,1.5-6.1,2.4-9.4c0.5-2.1,1.4-4.5,2.2-6.9
		c1.2-2.1,2.2,0.3,2.2,0.7c0.5,4.2,0.7,6.3,1.2,9.9c0.3,1.6,0.3,4.4,2,5.3c1.4,0.1,3.6,0.3,4.7-2.1"/>
	<path d="M-200.9,39.1l-5.3,2.9c-4.5,3.2-9,0.3-9,0.3c-5.9-3.3-6.5-2.7-6.5-2.7l6.1-20.6c-2.7-4.9-7.3-0.4-7.3-0.4
		c-0.2,0-4,4.3-4,4.3c-2,2.9-4.9,8.2-4.9,8.2c-1-7.6-4.8-12.9-4.8-12.9c-5.5-3.7-8.2,2-8.2,2c-0.9,2.2-2.3,3.8-2.3,3.8
		c-3.4,4.1-11.4,6.3-11.4,6.3c3-7.7,0.6-11.4,0.6-11.4c-4.8-7.1-11.3,0-11.3,0c-7.2,8.8,1.5,14.7,1.5,14.7l-0.7,1
		c0.8,5.5,6.3,0.7,6.3,0.7c15.7-1.5,21.6-11.6,21.6-11.6c2.9,6.6,3.8,12.1,4,14.2c0.1,0.6,0.4,1.2,0.9,1.5
		c6.2,4.4,10.9-10.1,10.9-10.1l-3.5,11.8c-5.1,2.7-8.6,11.8-8.6,11.8c-6.8,8.3-11.5,18.4-11.5,18.4c-5.8,11.7-2.4,17.5-2.4,17.5
		c2.9,3.3,7.8,1.6,7.8,1.6c4.3-0.7,4.7-6.4,4.7-6.4c0-1.6,1-4.3,1-4.3l13.7-35l3.8,1.9c11.4,5,22.4-4.5,22.4-4.5
		C-196.1,37.5-200.9,39.1-200.9,39.1 M-264.5,28.9c-1.1-1.5-3.3-5.1,0.8-8.4c0.4-0.3,1-0.2,1.2,0.3c0.8,1.5,2,4.8-0.9,8.2
		C-263.7,29.3-264.3,29.3-264.5,28.9z M-244.6,85.9c-3.4-8.1,8.8-25.2,8.8-25.2L-244.6,85.9z"/>
</g>
<g>
	<path class="st0" d="M197.4,5.3v22.9c0,3.3-0.8,6.1-2.5,8.4c-1.6,2.3-4.1,3.4-7.5,3.4c-2.7,0-4.9-1-6.8-3c-1.9-2-2.8-4.4-2.8-7.2
		c0-2.7,1-5,2.8-6.9c1.9-1.9,4.1-2.9,6.8-2.9c1.5,0,2.9,0.3,4.2,0.9l0.8-3c-1.6-0.7-3.2-1-5-1c-3.5,0-6.5,1.3-9.1,3.8
		c-2.6,2.5-3.8,5.6-3.8,9c0,3.7,1.3,6.9,3.8,9.5c2.5,2.6,5.7,3.9,9.3,3.9c3.9,0,7.1-1.3,9.5-4c2.4-2.6,3.6-6.1,3.6-10.3V5.3H197.4z"
		/>
	<path class="st0" d="M219.6,17c-3.6,0-6.7,1.3-9.2,3.8c-2.5,2.5-3.8,5.6-3.8,9.2c0,3.7,1.3,6.8,3.8,9.3c2.5,2.5,5.6,3.8,9.2,3.8
		c3.6,0,6.8-1.3,9.3-3.8c2.5-2.5,3.8-5.6,3.8-9.1c0-3.7-1.3-6.8-3.8-9.4C226.3,18.3,223.2,17,219.6,17 M219.5,40.1
		c-2.7,0-4.9-1-6.8-3c-1.9-2-2.9-4.3-2.9-7.1c0-2.7,1-5,2.9-7c1.9-1.9,4.2-2.9,6.9-2.9c2.7,0,4.9,1,6.8,3c1.9,2,2.9,4.4,2.9,7.1
		c0,2.7-0.9,5.1-2.8,7C224.6,39.1,222.3,40.1,219.5,40.1"/>
	<path class="st0" d="M266.1,17.3c-2,0-3.8,0.4-5.2,1.3c-1.2,0.7-2.4,1.9-3.4,3.4c-2-3.1-4.9-4.6-8.6-4.6c-3.1,0-5.4,0.7-6.9,2.2
		c-1.5,1.4-2.4,2.6-2.8,3.7c-0.4,1.1-0.6,2.6-0.6,4.6v15.4h3.5v-15c0-1.5,0.1-2.6,0.2-3.2c0.1-0.6,0.5-1.3,1-2
		c0.5-0.7,1.3-1.3,2.2-1.8c1-0.5,2.1-0.7,3.2-0.7c2.1,0,3.7,0.5,4.7,1.6c1.1,1.1,1.7,2,1.9,2.7c0.2,0.7,0.3,1.8,0.3,3.2v15.2h3.5
		V28.4c0-1.4,0.1-2.5,0.3-3.3c0.2-0.7,0.8-1.7,1.7-3c0.9-1.1,2.5-1.7,4.9-1.7c2,0,3.6,0.6,4.8,1.9c1.2,1.3,1.8,2.9,1.8,5v15.8h3.5
		V27.3c0-3-0.9-5.4-2.8-7.2C271.6,18.3,269.1,17.3,266.1,17.3"/>
	<rect x="284.8" y="17.4" class="st0" width="3.3" height="25.5"/>
	<path class="st0" d="M306.4,17c-3.1,0-5.7,1.1-7.7,3.2c-2,2.1-3,4.9-3,8.1v14.5h3.3V29.8c0-2.7,0.4-4.7,1.1-5.9
		c0.7-1.2,1.7-2.1,2.8-2.8c1.1-0.6,2.3-0.9,3.5-0.9c2.3,0,4,0.8,5.3,2.4c1.3,1.6,2,3.9,2,6.8v13.5h3.3V28.3c0-3.2-1-5.9-3-8
		C311.9,18.1,309.4,17,306.4,17"/>
	<rect x="324.5" y="17.4" class="st0" width="3.3" height="25.5"/>
	<path class="st0" d="M405.2,17c-3.1,0-5.7,1.1-7.7,3.2c-2,2.1-3,4.9-3,8.1v14.5h3.3V29.8c0-2.7,0.4-4.7,1.1-5.9
		c0.7-1.2,1.7-2.1,2.8-2.8c1.1-0.6,2.3-0.9,3.5-0.9c2.3,0,4,0.8,5.3,2.4c1.3,1.6,2,3.9,2,6.8v13.5h3.3V28.3c0-3.2-1-5.9-3-8
		C410.7,18.1,408.1,17,405.2,17"/>
	<path class="st0" d="M326.1,8.2c-0.6,0-1,0.2-1.4,0.6c-0.4,0.4-0.6,0.9-0.6,1.4c0,0.5,0.2,1,0.6,1.4c0.4,0.4,0.9,0.6,1.4,0.6
		c0.6,0,1.1-0.2,1.5-0.6c0.4-0.4,0.6-0.8,0.6-1.4c0-0.6-0.2-1.1-0.6-1.4C327.2,8.4,326.7,8.2,326.1,8.2"/>
	<path class="st0" d="M286.5,8.2c-0.6,0-1,0.2-1.4,0.6c-0.4,0.4-0.6,0.9-0.6,1.4c0,0.5,0.2,1,0.6,1.4c0.4,0.4,0.9,0.6,1.4,0.6
		c0.6,0,1.1-0.2,1.5-0.6c0.4-0.4,0.6-0.8,0.6-1.4c0-0.6-0.2-1.1-0.6-1.4C287.5,8.4,287,8.2,286.5,8.2"/>
	<path class="st0" d="M57.5,30.7c0,2.8-0.4,4.9-1.1,6.1c-0.7,1.2-1.7,2.1-2.8,2.7c-1.1,0.6-2.3,0.9-3.5,0.9c-2.3,0-4-0.8-5.3-2.4
		c-1.3-1.7-2-4-2-6.9V17.4h-3.3v14.9c0,3.2,1,6,3,8.1c2,2.1,4.5,3.2,7.5,3.2c3.2,0,5.8-1.1,7.8-3.2c2-2.1,3-4.9,3-8.3V17.4h-3.3
		V30.7z"/>
	<path class="st0" d="M67.9,30.8v12.4H71V30.8c0-5.7,4.6-10.3,10.2-10.3h0.6v-3.1h-0.6C73.8,17.4,67.9,23.4,67.9,30.8"/>
	<path class="st0" d="M97.9,17.4c-3.6,0-6.7,1.3-9.2,3.8c-2.5,2.5-3.8,5.6-3.8,9.2c0,3.7,1.3,6.8,3.8,9.3c2.5,2.5,5.6,3.8,9.2,3.8
		c3.6,0,6.8-1.3,9.3-3.8c2.5-2.5,3.8-5.6,3.8-9.1c0-3.7-1.3-6.8-3.8-9.4C104.6,18.7,101.5,17.4,97.9,17.4 M97.8,40.5
		c-2.7,0-4.9-1-6.8-3c-1.9-2-2.9-4.4-2.9-7.1c0-2.7,1-5,2.9-7c1.9-1.9,4.2-2.9,6.9-2.9c2.6,0,4.9,1,6.8,3c1.9,2,2.9,4.4,2.9,7.1
		c0,2.7-0.9,5.1-2.8,7C102.9,39.5,100.6,40.5,97.8,40.5"/>
	<path class="st0" d="M116.4,30.8v12.4h3.1V30.8c0-5.7,4.6-10.3,10.2-10.3h0.6v-3.1h-0.6C122.4,17.4,116.4,23.4,116.4,30.8"/>
	<path class="st0" d="M155.5,21.4c-2.5-2.6-5.6-4-9.3-4c-3.6,0-6.8,1.3-9.3,3.9c-2.5,2.6-3.8,5.7-3.8,9.4c0,3.6,1.3,6.6,3.8,9.1
		c2.5,2.5,5.6,3.8,9.1,3.8c1.8,0,3.5-0.3,4.9-0.9l-0.8-3.1c-1.2,0.5-2.5,0.8-3.8,0.8c-2.7,0-5-1-7-2.9c-1.9-1.9-2.9-4.2-2.9-7
		c0-2.8,1-5.2,2.9-7.1c1.9-1.9,4.2-2.9,6.8-2.9c3,0,5.3,1,7.1,3.1c1.8,2.1,2.7,5,2.7,8.5v11.1h3.3v-12C159.3,27.3,158,24,155.5,21.4
		"/>
	<path class="st0" d="M28.5,21.4c-2.5-2.6-5.6-4-9.3-4c-3.6,0-6.8,1.3-9.3,3.9c-2.5,2.6-3.8,5.7-3.8,9.4c0,3.6,1.3,6.6,3.8,9.1
		c2.5,2.5,5.6,3.8,9.1,3.8c1.8,0,3.5-0.3,4.9-0.9c0,0,0,0,0.1,0l-0.8-3c-1.2,0.5-2.5,0.8-3.9,0.8c-2.7,0-5-1-7-2.9
		c-1.9-1.9-2.9-4.2-2.9-7c0-2.8,1-5.2,2.9-7.1c1.9-1.9,4.2-2.9,6.8-2.9c3,0,5.3,1,7.1,3.1c1.8,2.1,2.7,4.9,2.7,8.5v11.1h3.3v-12
		C32.2,27.3,31,24,28.5,21.4"/>
	<path class="st0" d="M384.5,21c-2.5-2.6-5.6-4-9.3-4c-3.6,0-6.8,1.3-9.3,3.9c-2.5,2.6-3.8,5.7-3.8,9.4c0,3.6,1.3,6.6,3.8,9.1
		c2.5,2.5,5.6,3.8,9.1,3.8c1.8,0,3.5-0.3,4.9-0.9c0,0,0.1,0,0.1-0.1l-0.8-3c-1.3,0.5-2.6,0.8-3.9,0.8c-2.7,0-5-1-7-2.9
		c-1.9-1.9-2.9-4.2-2.9-7c0-2.8,1-5.2,2.9-7.1c1.9-1.9,4.2-2.9,6.8-2.9c3,0,5.3,1,7.1,3.1c1.8,2.1,2.7,5,2.7,8.5v11.1h3.3v-12
		C388.2,26.9,386.9,23.6,384.5,21"/>
	<path class="st0" d="M442.9,21c-2.5-2.6-5.6-4-9.3-4c-3.6,0-6.8,1.3-9.3,3.9c-2.5,2.6-3.8,5.7-3.8,9.4c0,3.6,1.3,6.6,3.8,9.1
		c2.5,2.5,5.6,3.8,9.1,3.8c1.8,0,3.5-0.3,4.9-0.9c0.1,0,0.2-0.1,0.2-0.1l-0.8-3c-1.3,0.6-2.6,0.9-4,0.9c-2.7,0-5-0.9-7-2.9
		c-1.9-1.9-2.9-4.2-2.9-7c0-2.8,1-5.2,2.9-7.1c1.9-1.9,4.2-2.9,6.9-2.9c3,0,5.3,1,7.1,3.1c1.8,2.1,2.7,4.9,2.7,8.5v11.1h3.3v-12
		C446.7,26.9,445.4,23.6,442.9,21"/>
	<path class="st0" d="M355.2,36.5c-0.3,0.4-0.6,0.8-0.9,1.1c-1.9,1.9-4.2,2.9-7,2.9c-2.7,0-4.9-1-6.8-3c-1.9-2-2.9-4.3-2.9-7.1
		c0-2.7,1-5,2.9-7c1.9-1.9,4.2-2.9,6.9-2.9c2.7,0,4.9,1,6.8,3c0.6,0.6,1.1,1.3,1.6,2.1l3.2-1c-0.6-1.2-1.4-2.3-2.3-3.3
		c-2.5-2.6-5.6-3.9-9.2-3.9c-3.6,0-6.7,1.3-9.2,3.8c-2.5,2.5-3.8,5.6-3.8,9.2c0,3.7,1.3,6.8,3.8,9.3c2.5,2.5,5.6,3.8,9.2,3.8
		c3.6,0,6.8-1.3,9.3-3.8c0.7-0.7,1.4-1.5,1.9-2.3L355.2,36.5z"/>
</g>
</svg>
