<svg id="Layer_1" data-name="Layer 1" xmlns="http://www.w3.org/2000/svg" viewBox="0 0 309.2 207.3"><defs><style>.cls-1{fill:none;stroke:#fff;stroke-linejoin:round;}.cls-2{fill:#fff;}</style></defs><title>imagotipo</title><path class="cls-1" d="M133.6,195.5c-13.2-3.3-13.3-11.9-9.7-15.5s10.1-3.1,14.9,1.6c4.4,4.3,7.4,11.2,7.4,11.2,5.6,9.6,18.1,14,27.7,8.5a20.06,20.06,0,0,0,7.3-27.4s-30.7-55.4-126.9,7.5" transform="translate(-38.2 -29.3)"/><path class="cls-1" d="M252.4,195.5c13.2-3.3,13.3-11.9,9.7-15.5s-10.1-3.1-14.9,1.6c-4.4,4.3-7.4,11.2-7.4,11.2-5.6,9.6-18.1,14-27.7,8.5a20.06,20.06,0,0,1-7.3-27.4s30.7-55.4,126.9,7.5" transform="translate(-38.2 -29.3)"/><path class="cls-1" d="M40.7,181.4A151.63,151.63,0,0,1,192.3,29.8C276,29.8,344,97.6,344,181.4" transform="translate(-38.2 -29.3)"/><path class="cls-2" d="M49.4,236.4v-9.3l-4,6.1H45.3l-4-6v9.3H38.2V222.2h3.4l3.8,6,3.8-6h3.4v14.3H49.4v-0.1Z" transform="translate(-38.2 -29.3)"/><path class="cls-2" d="M70.1,236.6c-3.8,0-6.2-2.1-6.2-6.4V222H67v8.1c0,2.3,1.2,3.5,3.1,3.5s3.1-1.2,3.1-3.4V222h3.1v8.1C76.3,234.5,73.9,236.6,70.1,236.6Z" transform="translate(-38.2 -29.3)"/><path class="cls-2" d="M87.7,236.4V222.1H98.5v2.8H90.8v2.9h6.7v2.8H90.8v3h7.8v2.8H87.7Z" transform="translate(-38.2 -29.3)"/><path class="cls-2" d="M114.7,236.6a9.26,9.26,0,0,1-6.1-2.3l1.9-2.2a6.31,6.31,0,0,0,4.3,1.7c1.3,0,2.1-.5,2.1-1.3h0c0-.8-0.5-1.2-2.9-1.8-2.9-.7-4.7-1.5-4.7-4.4h0c0-2.6,2.1-4.3,5-4.3a8.47,8.47,0,0,1,5.3,1.8l-1.6,2.4a6.58,6.58,0,0,0-3.7-1.4c-1.2,0-1.8.6-1.8,1.2h0c0,0.9.6,1.2,3.1,1.9,2.9,0.8,4.5,1.8,4.5,4.3h0C119.9,235,117.8,236.6,114.7,236.6Z" transform="translate(-38.2 -29.3)"/><path class="cls-2" d="M137,225v11.4h-3.1V225h-4.4v-2.9h11.9V225H137Z" transform="translate(-38.2 -29.3)"/><path class="cls-2" d="M160.6,236.4l-3.1-4.6H155v4.6h-3.1V222.1h6.5c3.4,0,5.4,1.8,5.4,4.7h0a4.28,4.28,0,0,1-3.1,4.4l3.5,5.1h-3.6v0.1Zm0.1-9.4c0-1.3-.9-2-2.5-2h-3.1v4.1h3.2c1.5-.1,2.4-0.9,2.4-2.1h0Z" transform="translate(-38.2 -29.3)"/><path class="cls-2" d="M185.5,236.4l-1.3-3.2h-6l-1.3,3.2h-3.2l6.1-14.4h2.9l6.1,14.4h-3.3Zm-4.3-10.6-1.9,4.6h3.8Z" transform="translate(-38.2 -29.3)"/><path class="cls-2" d="M219.1,236.4h-5.6V222.1h5.6c4.5,0,7.6,3.1,7.6,7.1h0C226.7,233.3,223.6,236.4,219.1,236.4Zm4.3-7.2a4.09,4.09,0,0,0-4.3-4.3h-2.4v8.6h2.4a4,4,0,0,0,4.3-4.3h0Z" transform="translate(-38.2 -29.3)"/><path class="cls-2" d="M237.7,236.4V222.1h10.8v2.8h-7.7v2.9h6.7v2.8h-6.7v3h7.8v2.8H237.7Z" transform="translate(-38.2 -29.3)"/><path class="cls-2" d="M280.6,236.6a7.18,7.18,0,0,1-7.3-7.4h0a7.71,7.71,0,0,1,13.1-5.2l-2,2.3a5.23,5.23,0,0,0-3.7-1.6,4.22,4.22,0,0,0-4.1,4.5h0a4.22,4.22,0,0,0,4.1,4.5,5.57,5.57,0,0,0,3.8-1.7l2,2A7.3,7.3,0,0,1,280.6,236.6Z" transform="translate(-38.2 -29.3)"/><path class="cls-2" d="M297.3,236.4V222.1h3.1v14.3h-3.1Z" transform="translate(-38.2 -29.3)"/><path class="cls-2" d="M322.2,236.4l-6.9-9.1v9.1h-3.1V222.1h2.9l6.7,8.8v-8.8h3.1v14.3h-2.7Z" transform="translate(-38.2 -29.3)"/><path class="cls-2" d="M336.5,236.4V222.1h10.8v2.8h-7.7v2.9h6.7v2.8h-6.7v3h7.8v2.8H336.5Z" transform="translate(-38.2 -29.3)"/><path class="cls-2" d="M139.6,104.1c0.7-1.4,1.6-2.8,2.4-4.3a3.12,3.12,0,0,1,.4,2c-0.3,5.7-.7,10.8-0.9,15.4-0.1,1.8,1.3,2.4,3.7,2.3,1.9,0.1,2.5-1.5,2.6-3,0.3-3.7.7-7.7,0.9-12.1a20.86,20.86,0,0,0-.6-6.6c-0.8-3.2-3.1-3.8-5.8-1.5a17.42,17.42,0,0,0-3.7,4.5c-1.4,2.3-3.2,4.9-4.7,7.4a1,1,0,0,1-1.9-.5,14.05,14.05,0,0,1,0-2.9c0.1-2.5,0-3.7,0-7.9-0.1-2.1-.2-3.5-1.3-4.9a0.91,0.91,0,0,0-.8-0.4c-1.2.1-2.6,1.3-3.7,2.2a7.21,7.21,0,0,0-1.6,3c-1.9,4.9-3.5,9.4-5,13.4a3.75,3.75,0,0,1,.1-1c0.7-5.7,1.4-12,2.3-19.3,0.3-2.5,0-4.9-2.6-5.8s-3.1,1.6-3.5,3.8c-1.6,8.5-3,15.8-3.9,22.3a60,60,0,0,0-.2,9.4,3.27,3.27,0,0,0,3.5,3c1.4,0.1,3.7-.3,4-1.1,1.4-3.4,2.2-7.4,3.5-11.7,0.5-1.7,1.1-3.4,1.7-5.2a1,1,0,0,1,2,.4c-0.2,4.2-.4,7.8-0.6,11.2a3.23,3.23,0,0,0,2.6,3.7c1.4,0.4,3.9-1,4.6-2.4" transform="translate(-38.2 -29.3)"/><path class="cls-2" d="M187.6,110.6c-4,9.6-8.7,6.8-13.3-5-1.1-2.8-1.8-6.5-6.4-4.8a1.72,1.72,0,0,1-1.1-.7c-4.2-2.8-6.2-2.3-9.7,1.7-2.5,3-5.9,7.6-9.9,12-0.8.9-.9,4.6,0.1,4.2l6.2-6.4c0.1,2.8-.2,3.2.5,5.2s2,4.4,3.6,4.8c2.6,0.7,5.2.2,6.3-1.2,2-2.7,2.6-5.8,3.8-10.3-0.3,1.1.8,2.7,1.9,3.8,5.4,5.8,9.1,6.9,14.1,4.6a17.2,17.2,0,0,0,5.5-4c-0.3-.4-0.7-3.2-1.6-3.9m-27.3,6.9a0.87,0.87,0,0,1-1.4-.4c-1.7-5.2.7-9.8,3.8-14.6a0.43,0.43,0,0,1,.7-0.1C166.2,105.4,163.7,114.2,160.3,117.5Z" transform="translate(-38.2 -29.3)"/><path class="cls-2" d="M208.1,108.3a22.43,22.43,0,0,1,1-2.6,0.66,0.66,0,0,1,1.1.1c0.4,1,.8,2.4.9,2.7,0.9,3.8,1.1,5.1,2,8.7,0.4,1.4.7,2.2,3.5,1.9,0.9,0,2.2.1,2.2-1.4-0.8-2.9-1.5-5.4-2.5-8.5a26.49,26.49,0,0,0-2.3-5.6c-1.9-2.9-3.5-2.3-4.3-1.9a5.58,5.58,0,0,0-.8.5,7.11,7.11,0,0,0-2.2,2.7c-1.2,2-2.2,4-3.3,6.3,0,0.1-.2,0-0.2,0-0.3-1.7-.4-3.1-0.7-4.5-0.4-1.7-.5-3.6-1.4-5.4a7,7,0,0,0-3.6-2.9,3.68,3.68,0,0,0-3.7,1.1,18.76,18.76,0,0,0-1.2,1.8h0c-1.2,3.1-2.4,6.2-3.4,9v-0.7c0.1-4-.1-4.3,0-8.5a3.79,3.79,0,0,0-3-3.8c-2.3-.6-3.2.7-3.3,2.7h0c0.2,4.8.5,5.1,0.7,10.4,0.2,3.4.1,4,.4,6.4,0.1,1.3-.1,3,2.1,3.2,1.6,0.1,4.1,0,4.3-.7,1.1-2.8,1.5-5.9,2.3-9.1,0.5-2,1.3-4.4,2.1-6.7,1.2-2,2.1.3,2.2,0.6,0.4,4.1.7,6.1,1.1,9.6,0.3,1.6.3,4.3,2,5.1,1.3,0,3.5.3,4.6-2.1" transform="translate(-38.2 -29.3)"/><path class="cls-2" d="M287.5,121.9l-5.1,2.8a8,8,0,0,1-8.7.3c-5.8-3.2-6.3-2.6-6.3-2.6l5.9-20.1c-2.6-4.8-7-.3-7-0.3-0.2,0-3.9,4.2-3.9,4.2-1.9,2.8-4.7,7.9-4.7,7.9a31.7,31.7,0,0,0-4.6-12.6c-5.3-3.5-8,1.9-8,1.9a13.73,13.73,0,0,1-2.2,3.7c-3.3,4-11.1,6.2-11.1,6.2,3-7.5.6-11.1,0.6-11.1-4.7-6.9-11,0-11,0-7,8.6,1.5,14.3,1.5,14.3l-0.7.9c0.7,5.3,6.2.7,6.2,0.7,15.2-1.4,21-11.3,21-11.3a49.29,49.29,0,0,1,3.9,13.8,2.14,2.14,0,0,0,.9,1.5c6.1,4.2,10.6-9.8,10.6-9.8l-3.4,11.5c-4.9,2.6-8.4,11.4-8.4,11.4A100.33,100.33,0,0,0,241.8,153c-5.6,11.4-2.3,17-2.3,17,2.8,3.2,7.6,1.6,7.6,1.6,4.2-.7,4.6-6.2,4.6-6.2a15.62,15.62,0,0,1,1-4.2l13.3-34,3.7,1.8c11.1,4.8,21.7-4.4,21.7-4.4,0.8-4.2-3.9-2.7-3.9-2.7M225.7,112c-1.1-1.4-3.2-5,.8-8.2a0.82,0.82,0,0,1,1.2.2,6.65,6.65,0,0,1-.9,8A0.65,0.65,0,0,1,225.7,112ZM245,167.4c-3.3-7.8,8.6-24.4,8.6-24.4Z" transform="translate(-38.2 -29.3)"/></svg>