<?xml version="1.0" encoding="utf-8"?>
<!-- Generator: Adobe Illustrator 19.2.0, SVG Export Plug-In . SVG Version: 6.00 Build 0)  -->
<svg version="1.1" id="Layer_1" xmlns="http://www.w3.org/2000/svg" xmlns:xlink="http://www.w3.org/1999/xlink" x="0px" y="0px"
	 viewBox="0 0 310 180" style="enable-background:new 0 0 310 180;" xml:space="preserve">
<style type="text/css">
	.st0{fill:none;stroke:#FFFFFF;stroke-width:3;stroke-linejoin:round;}
</style>
<path class="st0" d="M96.4,168.2c-13.2-3.3-13.3-11.9-9.7-15.5s10.1-3.1,14.9,1.6c4.4,4.3,7.4,11.2,7.4,11.2
	c5.6,9.6,18.1,14,27.7,8.5c9.6-5.6,12.8-17.8,7.3-27.4c0,0-30.7-55.4-126.9,7.5"/>
<path class="st0" d="M215.2,168.2c13.2-3.3,13.3-11.9,9.7-15.5s-10.1-3.1-14.9,1.6c-4.4,4.3-7.4,11.2-7.4,11.2
	c-5.6,9.6-18.1,14-27.7,8.5c-9.6-5.6-12.8-17.8-7.3-27.4c0,0,30.7-55.4,126.9,7.5"/>
<path class="st0" d="M3.5,154.1C3.5,70.4,71.4,2.5,155.1,2.5c83.7,0,151.7,67.8,151.7,151.6"/>
</svg>
