<?xml version="1.0" encoding="utf-8"?>
<!-- Generator: Adobe Illustrator 19.2.0, SVG Export Plug-In . SVG Version: 6.00 Build 0)  -->
<svg version="1.1" id="Layer_1" xmlns="http://www.w3.org/2000/svg" xmlns:xlink="http://www.w3.org/1999/xlink" x="0px" y="0px"
	 viewBox="0 0 193.7 99.2" style="enable-background:new 0 0 193.7 99.2;" xml:space="preserve">
<style type="text/css">
	.st0{fill:#FFFFFF;}
</style>
<g>
	<path class="st0" d="M34.3,26c0.7-1.5,1.6-2.9,2.5-4.5c0.5,0.8,0.4,1.4,0.4,2.1c-0.3,5.9-0.7,11.1-0.9,15.8
		c-0.1,1.8,1.4,2.5,3.8,2.4c2,0.1,2.6-1.5,2.7-3.1c0.3-3.8,0.7-7.9,0.9-12.5c0.1-2.2,0-4.6-0.6-6.8c-0.8-3.3-3.2-3.9-6-1.5
		c-1.5,1.3-2.8,3-3.8,4.7c-1.4,2.4-3.3,5.1-4.9,7.6c-0.5,0.9-1.9,0.5-2-0.5s-0.1-1.9,0-3c0.1-2.6,0-3.9,0-8.1
		c-0.1-2.2-0.2-3.6-1.3-5.1c-0.2-0.3-0.5-0.4-0.8-0.4c-1.2,0.1-2.7,1.4-3.8,2.3c-0.8,0.7-1.3,2-1.7,3.1c-1.9,5-3.6,9.7-5.1,13.8
		c0-0.3,0-0.6,0.1-1c0.7-5.8,1.5-12.4,2.3-19.9c0.3-2.5,0-5.1-2.6-6s-3.2,1.7-3.6,3.9c-1.6,8.7-3.1,16.2-4,22.9
		C5.5,35.7,5.6,39,5.7,42c0,1.6,1.6,3.1,3.6,3.1c1.5,0.1,3.8-0.4,4.2-1.2c1.5-3.5,2.3-7.7,3.6-12c0.5-1.7,1.1-3.5,1.8-5.4
		c0.4-1.2,2.1-0.8,2.1,0.4c-0.2,4.3-0.4,8.1-0.6,11.5c-0.1,1.8,0.7,3.2,2.6,3.8c1.4,0.4,4-1,4.7-2.5"/>
	<path class="st0" d="M83.7,32.7c-4.1,9.9-8.9,7-13.7-5.1c-1.1-2.9-1.8-6.7-6.6-4.9c-0.3,0.1-0.8-0.4-1.2-0.7
		c-4.4-2.9-6.4-2.4-10,1.8c-2.6,3.1-6.1,7.8-10.2,12.3c-0.8,0.9-0.9,4.7,0.1,4.3l6.4-6.6c0.1,2.9-0.2,3.3,0.5,5.4
		c0.6,2,2.1,4.5,3.7,5c2.7,0.7,5.3,0.3,6.5-1.3c2.1-2.7,2.7-6,3.9-10.6c-0.3,1.1,0.9,2.7,2,3.9c5.6,5.9,9.4,7.1,14.5,4.7
		c2.2-1,3.8-2.3,5.6-4.1C85.1,36.3,84.7,33.4,83.7,32.7 M55.7,39.8c-0.5,0.5-1.3,0.2-1.5-0.4c-1.7-5.4,0.7-10,3.9-15
		c0.2-0.3,0.5-0.3,0.8-0.1C61.7,27.4,59.1,36.5,55.7,39.8z"/>
	<path class="st0" d="M104.8,30.4c0.3-0.7,0.5-1.8,1-2.7c0.2-0.4,0.9-0.3,1.1,0.1c0.4,1.1,0.8,2.5,0.9,2.8c0.9,3.9,1.2,5.2,2.1,8.9
		c0.4,1.5,0.8,2.3,3.6,2c0.9,0,2.2,0.1,2.3-1.5c-0.8-3-1.6-5.6-2.6-8.8c-0.5-1.5-1.3-4.2-2.4-5.7c-2-3-3.6-2.3-4.5-2
		c-0.2,0.1-0.7,0.4-0.9,0.5c-1.1,0.7-1.6,1.8-2.2,2.8c-1.2,2.1-2.2,4.2-3.4,6.5c0,0.1-0.2,0-0.2,0c-0.3-1.7-0.4-3.1-0.7-4.6
		c-0.4-1.8-0.6-3.7-1.5-5.5c-0.6-1.1-2.4-2.6-3.7-2.9c-1.2-0.3-3,0-3.8,1.1c-0.5,0.7-0.8,1.2-1.2,1.9l0,0c-1.3,3.2-2.4,6.3-3.5,9.3
		c0-0.2,0-0.5,0-0.7c0.1-4.1-0.1-4.4,0-8.8c0-1.4-0.8-3.3-3.1-3.9c-2.3-0.6-3.3,0.7-3.4,2.8l0,0c0.2,5,0.6,5.2,0.7,10.8
		c0.2,3.5,0.1,4.2,0.4,6.6c0.1,1.4-0.1,3,2.2,3.2c1.6,0.1,4.2,0,4.5-0.7c1.1-2.8,1.5-6.1,2.4-9.4c0.5-2.1,1.4-4.5,2.2-6.9
		c1.2-2.1,2.2,0.3,2.2,0.7c0.5,4.2,0.7,6.3,1.2,9.9c0.3,1.6,0.3,4.4,2,5.3c1.4,0.1,3.6,0.3,4.7-2.1"/>
	<path class="st0" d="M186.6,44.4l-5.3,2.9c-4.5,3.2-9,0.3-9,0.3c-5.9-3.3-6.5-2.7-6.5-2.7l6.1-20.6c-2.7-4.9-7.3-0.4-7.3-0.4
		c-0.2,0-4,4.3-4,4.3c-2,2.9-4.9,8.2-4.9,8.2c-1-7.6-4.8-12.9-4.8-12.9c-5.5-3.7-8.2,2-8.2,2c-0.9,2.2-2.3,3.8-2.3,3.8
		c-3.4,4.1-11.4,6.3-11.4,6.3c3-7.7,0.6-11.4,0.6-11.4c-4.8-7.1-11.3,0-11.3,0c-7.2,8.8,1.5,14.7,1.5,14.7l-0.7,1
		c0.8,5.5,6.3,0.7,6.3,0.7C141.1,39.1,147,29,147,29c2.9,6.6,3.8,12.1,4,14.2c0.1,0.6,0.4,1.2,0.9,1.5c6.2,4.4,10.9-10.1,10.9-10.1
		l-3.5,11.8c-5.1,2.7-8.6,11.8-8.6,11.8c-6.8,8.3-11.5,18.4-11.5,18.4c-5.8,11.7-2.4,17.5-2.4,17.5c2.9,3.3,7.8,1.6,7.8,1.6
		c4.3-0.7,4.7-6.4,4.7-6.4c0-1.6,1-4.3,1-4.3L164,50l3.8,1.9c11.4,5,22.4-4.5,22.4-4.5C191.4,42.8,186.6,44.4,186.6,44.4
		 M122.9,34.2c-1.1-1.5-3.3-5.1,0.8-8.4c0.4-0.3,1-0.2,1.2,0.3c0.8,1.5,2,4.8-0.9,8.2C123.8,34.6,123.2,34.6,122.9,34.2z
		 M142.9,91.3c-3.4-8.1,8.8-25.2,8.8-25.2L142.9,91.3z"/>
</g>
</svg>
