<?xml version="1.0" encoding="utf-8"?>
<!-- Generator: Adobe Illustrator 19.2.0, SVG Export Plug-In . SVG Version: 6.00 Build 0)  -->
<svg version="1.1" id="Layer_1" xmlns="http://www.w3.org/2000/svg" xmlns:xlink="http://www.w3.org/1999/xlink" x="0px" y="0px"
	 viewBox="0 0 210 208.9" style="enable-background:new 0 0 210 208.9;" xml:space="preserve">
<style type="text/css">
	.st0{fill:none;stroke:#75E1F9;stroke-width:5;stroke-miterlimit:10;}
	.st1{fill:none;stroke:#75E1F9;stroke-width:3.2525;stroke-miterlimit:10;}
	.st2{fill:#B4EFF9;}
	.st3{fill:#FFFFFF;}
	.st4{fill:none;stroke:#B4EFF9;stroke-width:4;stroke-miterlimit:10;}
</style>
<g>
	<path class="st0" d="M153.7,4.4H55.9c-28.2,0-51,22.8-51,51v97.8c0,28.2,22.8,51,51,51h97.8c28.2,0,51-22.8,51-51V55.4
		C204.7,27.2,181.8,4.4,153.7,4.4z"/>
	<path class="st1" d="M204.7,109.8"/>
	<g>
		<path class="st2" d="M68.4,77.6h25.2V66.5H55.5v24C55.5,83.4,61.3,77.6,68.4,77.6z"/>
		<path class="st3" d="M154.9,131.9c0-4.8,0.3-20.1,0.3-21.6c0-1.5-0.3-16.8-0.3-21.6c0-2.9,1.9-4.2,3.6-4.8
			c-2.3-3.8-6.4-6.3-11.1-6.3H93.6H68.4c-7.2,0-13,5.8-13,13v1.9v36.7c0,7.2,5.8,13,13,13h79c4.4,0,8.3-2.2,10.6-5.5
			C156.5,135.9,154.9,134.5,154.9,131.9z M142.5,123.4c0,4-3.1,7.3-7,7.3H76.1c-3.9,0-7-3.3-7-7.3V96.2c0-4,3.1-7.3,7-7.3h59.4
			c3.9,0,7,3.3,7,7.3V123.4z"/>
	</g>
	<line class="st4" x1="155.2" y1="109.8" x2="204.7" y2="109.8"/>
	
		<rect x="199.3" y="107.4" transform="matrix(4.161033e-11 -1 1 4.161033e-11 94.8392 314.4981)" class="st3" width="10.8" height="5"/>
</g>
</svg>
