<?xml version="1.0" encoding="utf-8"?>
<!-- Generator: Adobe Illustrator 19.2.0, SVG Export Plug-In . SVG Version: 6.00 Build 0)  -->
<svg version="1.1" id="Layer_1" xmlns="http://www.w3.org/2000/svg" xmlns:xlink="http://www.w3.org/1999/xlink" x="0px" y="0px"
	 viewBox="0 0 173.8 40.1" style="enable-background:new 0 0 173.8 40.1;" xml:space="preserve">
<style type="text/css">
	.st0{fill:none;stroke:#75E1F9;stroke-width:2.9409;stroke-miterlimit:10;}
	.st1{fill:#75E1F9;}
	.st2{fill:#20C5F2;}
	.st3{fill:none;stroke:#75E1F9;stroke-width:1.8084;stroke-miterlimit:10;}
	.st4{font-family:'NeutraDisp-Titling';}
	.st5{font-size:36.7665px;}
	.st6{letter-spacing:5;}
</style>
<g>
	<g>
		<path class="st0" d="M76.5,23.2"/>
		<g>
			<path class="st1" d="M8.5,7h12.6V1.5H2v12C2,9.9,4.9,7,8.5,7z"/>
			<path class="st2" d="M51.7,34.2c0-2.4,0.2-10.1,0.2-10.8c0-0.7-0.2-8.4-0.2-10.8c0-1.4,1-2.1,1.8-2.4C52.4,8.3,50.3,7,47.9,7
				H21.1H8.5C4.9,7,2,9.9,2,13.5v0.9v18.3c0,3.6,2.9,6.5,6.5,6.5h39.4c2.2,0,4.1-1.1,5.3-2.8C52.5,36.2,51.7,35.5,51.7,34.2z
				 M45.5,30c0,2-1.6,3.7-3.5,3.7H12.3c-1.9,0-3.5-1.6-3.5-3.7V16.4c0-2,1.6-3.7,3.5-3.7H42c1.9,0,3.5,1.6,3.5,3.7V30z"/>
		</g>
		<line class="st3" x1="51.9" y1="23.2" x2="76.5" y2="23.2"/>
	</g>
	<g>
		<text transform="matrix(1 0 0 1 69.6967 34.5735)" class="st2 st4 st5 st6">INDX</text>
	</g>
</g>
</svg>
